<svg width="114" height="114" viewBox="0 0 114 114" fill="none" xmlns="http://www.w3.org/2000/svg">
<path d="M101.082 88.9957C98.6822 83.3106 95.1992 78.1467 90.8274 73.7915C86.4688 69.4237 81.3057 65.9413 75.6231 63.5366C75.5722 63.5111 75.5213 63.4984 75.4705 63.4729C83.397 57.7475 88.5499 48.4214 88.5499 37.8993C88.5499 20.4685 74.4271 6.3457 56.9963 6.3457C39.5655 6.3457 25.4428 20.4685 25.4428 37.8993C25.4428 48.4214 30.5957 57.7475 38.5222 63.4857C38.4713 63.5111 38.4205 63.5238 38.3696 63.5493C32.6696 65.954 27.5548 69.402 23.1653 73.8042C18.7976 78.1628 15.3151 83.3259 12.9104 89.0084C10.548 94.5717 9.27388 100.536 9.15706 106.579C9.15366 106.715 9.17748 106.85 9.22711 106.977C9.27674 107.103 9.35117 107.218 9.44603 107.315C9.54089 107.413 9.65425 107.49 9.77943 107.543C9.90461 107.595 10.0391 107.623 10.1749 107.623H17.8088C18.3687 107.623 18.814 107.177 18.8267 106.63C19.0812 96.8078 23.0254 87.6089 29.9977 80.6366C37.2117 73.4225 46.7923 69.4529 56.9963 69.4529C67.2004 69.4529 76.7809 73.4225 83.995 80.6366C90.9673 87.6089 94.9115 96.8078 95.166 106.63C95.1787 107.19 95.624 107.623 96.1838 107.623H103.818C103.954 107.623 104.088 107.595 104.213 107.543C104.338 107.49 104.452 107.413 104.547 107.315C104.642 107.218 104.716 107.103 104.766 106.977C104.815 106.85 104.839 106.715 104.836 106.579C104.708 100.498 103.449 94.5812 101.082 88.9957V88.9957ZM56.9963 59.7832C51.1564 59.7832 45.66 57.5058 41.5249 53.3707C37.3899 49.2357 35.1124 43.7392 35.1124 37.8993C35.1124 32.0593 37.3899 26.5629 41.5249 22.4278C45.66 18.2928 51.1564 16.0153 56.9963 16.0153C62.8363 16.0153 68.3327 18.2928 72.4678 22.4278C76.6028 26.5629 78.8803 32.0593 78.8803 37.8993C78.8803 43.7392 76.6028 49.2357 72.4678 53.3707C68.3327 57.5058 62.8363 59.7832 56.9963 59.7832Z" fill="#0F579E"/>
<rect x="1" y="1" width="112" height="112" stroke="#0F579E" stroke-width="2"/>
</svg>
