<svg width="117" height="75" viewBox="0 0 117 75" fill="none" xmlns="http://www.w3.org/2000/svg">
<path d="M4.5225 62.08C4.01583 62.08 3.5945 61.9893 3.2585 61.808C2.9225 61.6267 2.66917 61.3787 2.4985 61.064C2.33317 60.744 2.2505 60.384 2.2505 59.984V56.288H3.3785V59.792C3.3785 60.256 3.4665 60.5973 3.6425 60.816C3.82383 61.0293 4.1065 61.136 4.4905 61.136C4.86383 61.136 5.1465 61.0373 5.3385 60.84C5.5305 60.6373 5.6265 60.2933 5.6265 59.808V56.288H7.9065V57.232H6.7545V59.968C6.7545 60.6133 6.5625 61.128 6.1785 61.512C5.7945 61.8907 5.2425 62.08 4.5225 62.08ZM8.64206 56.288H9.77006V57.896C9.77006 58.0453 9.76473 58.192 9.75406 58.336C9.74873 58.48 9.7354 58.6267 9.71406 58.776H9.77006C9.93006 58.4773 10.1514 58.256 10.4341 58.112C10.7167 57.9627 11.0421 57.888 11.4101 57.888C11.8047 57.888 12.1461 57.9733 12.4341 58.144C12.7221 58.3093 12.9434 58.544 13.0981 58.848C13.2527 59.1467 13.3301 59.4987 13.3301 59.904V60.376H12.2021V59.984C12.2021 59.216 11.8447 58.832 11.1301 58.832C10.7354 58.832 10.4101 58.9413 10.1541 59.16C9.89806 59.3787 9.77006 59.7067 9.77006 60.144V62H8.64206V56.288ZM16.6386 62.08C15.9186 62.08 15.3666 61.888 14.9826 61.504C14.6039 61.12 14.4146 60.608 14.4146 59.968V56.288H15.5426V59.8C15.5426 60.2853 15.6359 60.6293 15.8226 60.832C16.0146 61.0347 16.2972 61.136 16.6706 61.136C17.0546 61.136 17.3372 61.0293 17.5186 60.816C17.6999 60.5973 17.7906 60.2587 17.7906 59.8V56.288H18.9186V59.984C18.9186 60.0427 18.9159 60.0987 18.9106 60.152C18.9799 60.1413 19.0439 60.136 19.1026 60.136C19.5292 60.136 19.8519 60.248 20.0706 60.472C20.2946 60.696 20.4066 61.0613 20.4066 61.568V62H19.4306V61.632C19.4306 61.3867 19.3879 61.216 19.3026 61.12C19.2226 61.024 19.0972 60.976 18.9266 60.976C18.8359 60.976 18.7612 60.9813 18.7026 60.992C18.5372 61.3227 18.2812 61.5867 17.9346 61.784C17.5932 61.9813 17.1612 62.08 16.6386 62.08ZM25.6061 56.288V59.984C25.6061 60.384 25.5207 60.744 25.3501 61.064C25.1794 61.3787 24.9234 61.6267 24.5821 61.808C24.2461 61.9893 23.8274 62.08 23.3261 62.08C22.6061 62.08 22.0541 61.888 21.6701 61.504C21.2914 61.12 21.1021 60.608 21.1021 59.968V56.288H22.2301V59.808C22.2301 60.2933 22.3234 60.6373 22.5101 60.84C22.7021 61.0373 22.9847 61.136 23.3581 61.136C23.7421 61.136 24.0247 61.0293 24.2061 60.816C24.3874 60.6027 24.4781 60.2667 24.4781 59.808V56.288H25.6061ZM28.9851 62.08C28.5317 62.08 28.1397 61.9947 27.8091 61.824C27.4784 61.648 27.2224 61.3973 27.0411 61.072C26.8597 60.7467 26.7691 60.3573 26.7691 59.904C26.7691 59.4667 26.8437 59.04 26.9931 58.624C27.1424 58.208 27.3424 57.824 27.5931 57.472C27.3104 57.4133 27.0971 57.28 26.9531 57.072C26.8091 56.8587 26.7371 56.552 26.7371 56.152V55.92H27.8651V56.16C27.8651 56.4587 27.9184 56.656 28.0251 56.752C28.1371 56.8427 28.3131 56.888 28.5531 56.888H28.9931L29.0571 57.008C28.9131 57.168 28.7717 57.3627 28.6331 57.592C28.4944 57.816 28.3691 58.0613 28.2571 58.328C28.1504 58.5893 28.0624 58.856 27.9931 59.128C27.9291 59.3947 27.8971 59.6533 27.8971 59.904C27.8971 60.2987 27.9904 60.6027 28.1771 60.816C28.3691 61.0293 28.6384 61.136 28.9851 61.136C29.3584 61.136 29.6277 61.0347 29.7931 60.832C29.9584 60.6293 30.0411 60.336 30.0411 59.952V58.64H31.1691V60.024C31.1691 60.6693 30.9717 61.1733 30.5771 61.536C30.1877 61.8987 29.6571 62.08 28.9851 62.08ZM34.5761 62.08C33.8561 62.08 33.3041 61.888 32.9201 61.504C32.5414 61.12 32.3521 60.608 32.3521 59.968V56.288H33.4801V59.8C33.4801 60.2853 33.5734 60.6293 33.7601 60.832C33.9521 61.0347 34.2347 61.136 34.6081 61.136C34.9921 61.136 35.2747 61.0293 35.4561 60.816C35.6374 60.5973 35.7281 60.2587 35.7281 59.8V56.288H36.8561V59.984C36.8561 60.0427 36.8534 60.0987 36.8481 60.152C36.9174 60.1413 36.9814 60.136 37.0401 60.136C37.4667 60.136 37.7894 60.248 38.0081 60.472C38.2321 60.696 38.3441 61.0613 38.3441 61.568V62H37.3681V61.632C37.3681 61.3867 37.3254 61.216 37.2401 61.12C37.1601 61.024 37.0347 60.976 36.8641 60.976C36.7734 60.976 36.6987 60.9813 36.6401 60.992C36.4747 61.3227 36.2187 61.5867 35.8721 61.784C35.5307 61.9813 35.0987 62.08 34.5761 62.08ZM43.1304 62H42.0024V60.488C42.0024 60.392 42.0051 60.2587 42.0104 60.088C42.0211 59.912 42.0371 59.7493 42.0584 59.6H42.0184C41.8424 59.8453 41.6104 60.0373 41.3224 60.176C41.0398 60.3147 40.7144 60.384 40.3464 60.384C39.7918 60.384 39.3464 60.2293 39.0104 59.92C38.6744 59.6107 38.5064 59.1253 38.5064 58.464V56.288H39.6344V58.192C39.6344 58.608 39.7198 58.92 39.8904 59.128C40.0611 59.336 40.3278 59.44 40.6904 59.44C41.1811 59.44 41.5224 59.2853 41.7144 58.976C41.9064 58.6613 42.0024 58.224 42.0024 57.664V57.056H43.1304V62ZM46.7401 62.08C46.0201 62.08 45.4681 61.888 45.0841 61.504C44.7055 61.12 44.5161 60.608 44.5161 59.968V56.288H45.6441V59.8C45.6441 60.2853 45.7375 60.6293 45.9241 60.832C46.1161 61.0347 46.3988 61.136 46.7721 61.136C47.1561 61.136 47.4388 61.0293 47.6201 60.816C47.8015 60.5973 47.8921 60.2587 47.8921 59.8V56.288H49.0201V59.984C49.0201 60.0427 49.0175 60.0987 49.0121 60.152C49.0815 60.1413 49.1455 60.136 49.2041 60.136C49.6308 60.136 49.9535 60.248 50.1721 60.472C50.3961 60.696 50.5081 61.0613 50.5081 61.568V62H49.5321V61.632C49.5321 61.3867 49.4895 61.216 49.4041 61.12C49.3241 61.024 49.1988 60.976 49.0281 60.976C48.9375 60.976 48.8628 60.9813 48.8041 60.992C48.6388 61.3227 48.3828 61.5867 48.0361 61.784C47.6948 61.9813 47.2628 62.08 46.7401 62.08ZM53.2507 62.08C52.7974 62.08 52.4054 61.9947 52.0747 61.824C51.744 61.648 51.488 61.3973 51.3067 61.072C51.1254 60.7467 51.0347 60.3573 51.0347 59.904C51.0347 59.4667 51.1094 59.04 51.2587 58.624C51.408 58.208 51.608 57.824 51.8587 57.472C51.576 57.4133 51.3627 57.28 51.2187 57.072C51.0747 56.8587 51.0027 56.552 51.0027 56.152V55.92H52.1307V56.16C52.1307 56.4587 52.184 56.656 52.2907 56.752C52.4027 56.8427 52.5787 56.888 52.8187 56.888H53.2587L53.3227 57.008C53.1787 57.168 53.0374 57.3627 52.8987 57.592C52.76 57.816 52.6347 58.0613 52.5227 58.328C52.416 58.5893 52.328 58.856 52.2587 59.128C52.1947 59.3947 52.1627 59.6533 52.1627 59.904C52.1627 60.2987 52.256 60.6027 52.4427 60.816C52.6347 61.0293 52.904 61.136 53.2507 61.136C53.624 61.136 53.8934 61.0347 54.0587 60.832C54.224 60.6293 54.3067 60.336 54.3067 59.952V58.64H55.4347V60.024C55.4347 60.6693 55.2374 61.1733 54.8427 61.536C54.4534 61.8987 53.9227 62.08 53.2507 62.08ZM63.1998 56.288V59.984C63.1998 60.384 63.1145 60.744 62.9438 61.064C62.7731 61.3787 62.5171 61.6267 62.1758 61.808C61.8398 61.9893 61.4211 62.08 60.9198 62.08C60.1998 62.08 59.6478 61.888 59.2638 61.504C58.8851 61.12 58.6958 60.608 58.6958 59.968V56.288H59.8238V59.808C59.8238 60.2933 59.9171 60.6373 60.1038 60.84C60.2958 61.0373 60.5785 61.136 60.9518 61.136C61.3358 61.136 61.6185 61.0293 61.7998 60.816C61.9811 60.6027 62.0718 60.2667 62.0718 59.808V56.288H63.1998ZM64.5628 62V58.304C64.5628 57.904 64.6481 57.5467 64.8188 57.232C64.9895 56.912 65.2428 56.6613 65.5788 56.48C65.9201 56.2987 66.3415 56.208 66.8428 56.208C67.5628 56.208 68.1121 56.4 68.4908 56.784C68.8748 57.168 69.0668 57.68 69.0668 58.32V62H67.9388V58.48C67.9388 57.9947 67.8428 57.6533 67.6508 57.456C67.4641 57.2533 67.1841 57.152 66.8108 57.152C66.4268 57.152 66.1441 57.2587 65.9628 57.472C65.7815 57.6853 65.6908 58.0213 65.6908 58.48V62H64.5628ZM74.5738 60.344C74.5738 60.8933 74.3551 61.32 73.9178 61.624C73.4858 61.928 72.8911 62.08 72.1338 62.08C71.8191 62.08 71.4991 62.0427 71.1738 61.968C70.8538 61.8933 70.5818 61.8027 70.3578 61.696V60.688C70.6778 60.8427 70.9845 60.9573 71.2778 61.032C71.5765 61.1013 71.8511 61.136 72.1018 61.136C72.5391 61.136 72.8698 61.0667 73.0938 60.928C73.3231 60.7893 73.4378 60.5893 73.4378 60.328C73.4378 60.0773 73.3391 59.8747 73.1418 59.72C72.9445 59.5653 72.6351 59.4347 72.2138 59.328L70.5338 59.856L70.2378 59.008L70.9418 58.792C70.6751 58.6427 70.4805 58.4747 70.3578 58.288C70.2405 58.096 70.1818 57.8667 70.1818 57.6C70.1818 57.312 70.2698 57.064 70.4458 56.856C70.6218 56.648 70.8618 56.488 71.1658 56.376C71.4751 56.264 71.8245 56.208 72.2138 56.208C72.8645 56.208 73.3631 56.3333 73.7098 56.584C74.0618 56.8293 74.2378 57.168 74.2378 57.6C74.2378 57.8667 74.1605 58.096 74.0058 58.288C73.8511 58.4747 73.6245 58.64 73.3258 58.784V58.824C73.7525 58.9467 74.0671 59.1467 74.2698 59.424C74.4725 59.696 74.5738 60.0027 74.5738 60.344ZM71.3098 57.672C71.3098 57.7733 71.3285 57.864 71.3658 57.944C71.4085 58.024 71.4911 58.1013 71.6138 58.176C71.7418 58.2507 71.9311 58.3333 72.1818 58.424L72.3418 58.376C72.8538 58.2213 73.1098 57.9867 73.1098 57.672C73.1098 57.4853 73.0271 57.344 72.8618 57.248C72.7018 57.152 72.4858 57.104 72.2138 57.104C71.9418 57.104 71.7231 57.152 71.5578 57.248C71.3925 57.344 71.3098 57.4853 71.3098 57.672ZM75.7124 56.288H76.8404V57.896C76.8404 58.0453 76.835 58.192 76.8244 58.336C76.819 58.48 76.8057 58.6267 76.7844 58.776H76.8404C77.0004 58.4773 77.2217 58.256 77.5044 58.112C77.787 57.9627 78.1124 57.888 78.4804 57.888C78.875 57.888 79.2164 57.9733 79.5044 58.144C79.7924 58.3093 80.0137 58.544 80.1684 58.848C80.323 59.1467 80.4004 59.4987 80.4004 59.904V60.376H79.2724V59.984C79.2724 59.216 78.915 58.832 78.2004 58.832C77.8057 58.832 77.4804 58.9413 77.2244 59.16C76.9684 59.3787 76.8404 59.7067 76.8404 60.144V62H75.7124V56.288ZM83.7089 62.08C82.9889 62.08 82.4369 61.888 82.0529 61.504C81.6742 61.12 81.4849 60.608 81.4849 59.968V56.288H82.6129V59.8C82.6129 60.2853 82.7062 60.6293 82.8929 60.832C83.0849 61.0347 83.3675 61.136 83.7409 61.136C84.1249 61.136 84.4075 61.0293 84.5889 60.816C84.7702 60.5973 84.8609 60.2587 84.8609 59.8V56.288H85.9889V59.984C85.9889 60.0427 85.9862 60.0987 85.9809 60.152C86.0502 60.1413 86.1142 60.136 86.1729 60.136C86.5995 60.136 86.9222 60.248 87.1409 60.472C87.3649 60.696 87.4769 61.0613 87.4769 61.568V62H86.5009V61.632C86.5009 61.3867 86.4582 61.216 86.3729 61.12C86.2929 61.024 86.1675 60.976 85.9969 60.976C85.9062 60.976 85.8315 60.9813 85.7729 60.992C85.6075 61.3227 85.3515 61.5867 85.0049 61.784C84.6635 61.9813 84.2315 62.08 83.7089 62.08ZM88.3296 62V56.288H89.4576V61.056H90.9776V62H88.3296ZM94.0839 62.08C93.3639 62.08 92.8119 61.888 92.4279 61.504C92.0492 61.12 91.8599 60.608 91.8599 59.968V56.288H92.9879V59.8C92.9879 60.2853 93.0812 60.6293 93.2679 60.832C93.4599 61.0347 93.7425 61.136 94.1159 61.136C94.4999 61.136 94.7825 61.0293 94.9639 60.816C95.1452 60.5973 95.2359 60.2587 95.2359 59.8V56.288H96.3639V59.984C96.3639 60.0427 96.3612 60.0987 96.3559 60.152C96.4252 60.1413 96.4892 60.136 96.5479 60.136C96.9745 60.136 97.2972 60.248 97.5159 60.472C97.7399 60.696 97.8519 61.0613 97.8519 61.568V62H96.8759V61.632C96.8759 61.3867 96.8332 61.216 96.7479 61.12C96.6679 61.024 96.5425 60.976 96.3719 60.976C96.2812 60.976 96.2065 60.9813 96.1479 60.992C95.9825 61.3227 95.7265 61.5867 95.3799 61.784C95.0385 61.9813 94.6065 62.08 94.0839 62.08ZM102.638 62H101.51V60.488C101.51 60.392 101.513 60.2587 101.518 60.088C101.529 59.912 101.545 59.7493 101.566 59.6H101.526C101.35 59.8453 101.118 60.0373 100.83 60.176C100.548 60.3147 100.222 60.384 99.8543 60.384C99.2996 60.384 98.8543 60.2293 98.5183 59.92C98.1823 59.6107 98.0143 59.1253 98.0143 58.464V56.288H99.1423V58.192C99.1423 58.608 99.2276 58.92 99.3983 59.128C99.5689 59.336 99.8356 59.44 100.198 59.44C100.689 59.44 101.03 59.2853 101.222 58.976C101.414 58.6613 101.51 58.224 101.51 57.664V57.056H102.638V62ZM106.248 62.08C105.528 62.08 104.976 61.888 104.592 61.504C104.213 61.12 104.024 60.608 104.024 59.968V56.288H105.152V59.8C105.152 60.2853 105.245 60.6293 105.432 60.832C105.624 61.0347 105.907 61.136 106.28 61.136C106.664 61.136 106.947 61.0293 107.128 60.816C107.309 60.5973 107.4 60.2587 107.4 59.8V56.288H108.528V59.984C108.528 60.0427 108.525 60.0987 108.52 60.152C108.589 60.1413 108.653 60.136 108.712 60.136C109.139 60.136 109.461 60.248 109.68 60.472C109.904 60.696 110.016 61.0613 110.016 61.568V62H109.04V61.632C109.04 61.3867 108.997 61.216 108.912 61.12C108.832 61.024 108.707 60.976 108.536 60.976C108.445 60.976 108.371 60.9813 108.312 60.992C108.147 61.3227 107.891 61.5867 107.544 61.784C107.203 61.9813 106.771 62.08 106.248 62.08ZM112.759 62.08C112.305 62.08 111.913 61.9947 111.583 61.824C111.252 61.648 110.996 61.3973 110.815 61.072C110.633 60.7467 110.543 60.3573 110.543 59.904C110.543 59.4667 110.617 59.04 110.767 58.624C110.916 58.208 111.116 57.824 111.367 57.472C111.084 57.4133 110.871 57.28 110.727 57.072C110.583 56.8587 110.511 56.552 110.511 56.152V55.92H111.639V56.16C111.639 56.4587 111.692 56.656 111.799 56.752C111.911 56.8427 112.087 56.888 112.327 56.888H112.767L112.831 57.008C112.687 57.168 112.545 57.3627 112.407 57.592C112.268 57.816 112.143 58.0613 112.031 58.328C111.924 58.5893 111.836 58.856 111.767 59.128C111.703 59.3947 111.671 59.6533 111.671 59.904C111.671 60.2987 111.764 60.6027 111.951 60.816C112.143 61.0293 112.412 61.136 112.759 61.136C113.132 61.136 113.401 61.0347 113.567 60.832C113.732 60.6293 113.815 60.336 113.815 59.952V58.64H114.943V60.024C114.943 60.6693 114.745 61.1733 114.351 61.536C113.961 61.8987 113.431 62.08 112.759 62.08ZM23.7226 70.904C23.7226 70.4987 23.8212 70.1093 24.0186 69.736C24.2159 69.3627 24.4826 69.0213 24.8186 68.712C24.4879 68.5787 24.2346 68.4453 24.0586 68.312C23.8879 68.1787 23.7706 68.032 23.7066 67.872C23.6426 67.712 23.6106 67.5173 23.6106 67.288H24.7386C24.7386 67.3947 24.7572 67.488 24.7946 67.568C24.8319 67.6427 24.9172 67.7173 25.0506 67.792C25.1839 67.8667 25.3972 67.9573 25.6906 68.064C26.1332 67.7973 26.6106 67.5893 27.1226 67.44C27.6346 67.2853 28.1412 67.208 28.6426 67.208V68.152C28.3386 68.152 28.0346 68.184 27.7306 68.248C27.4266 68.3067 27.1359 68.3947 26.8586 68.512C27.3226 68.7253 27.6826 68.952 27.9386 69.192C28.1999 69.432 28.3812 69.6933 28.4826 69.976C28.5892 70.2587 28.6426 70.568 28.6426 70.904C28.6426 71.336 28.5359 71.7173 28.3226 72.048C28.1092 72.3733 27.8132 72.6267 27.4346 72.808C27.0612 72.9893 26.6319 73.08 26.1466 73.08C25.6612 73.08 25.2346 72.9893 24.8666 72.808C24.5039 72.6213 24.2212 72.3653 24.0186 72.04C23.8212 71.7147 23.7226 71.336 23.7226 70.904ZM24.8586 70.888C24.8586 71.272 24.9732 71.576 25.2026 71.8C25.4319 72.024 25.7466 72.136 26.1466 72.136C26.5626 72.136 26.8932 72.0293 27.1386 71.816C27.3839 71.6027 27.5066 71.3013 27.5066 70.912C27.5066 70.512 27.3732 70.1653 27.1066 69.872C26.8452 69.5787 26.4239 69.32 25.8426 69.096C25.5439 69.336 25.3039 69.608 25.1226 69.912C24.9466 70.216 24.8586 70.5413 24.8586 70.888ZM32.0292 73.08C31.3092 73.08 30.7572 72.888 30.3732 72.504C29.9945 72.12 29.8052 71.608 29.8052 70.968V67.288H30.9332V70.8C30.9332 71.2853 31.0265 71.6293 31.2132 71.832C31.4052 72.0347 31.6879 72.136 32.0612 72.136C32.4452 72.136 32.7279 72.0293 32.9092 71.816C33.0905 71.5973 33.1812 71.2587 33.1812 70.8V67.288H34.3092V70.984C34.3092 71.0427 34.3065 71.0987 34.3012 71.152C34.3705 71.1413 34.4345 71.136 34.4932 71.136C34.9199 71.136 35.2425 71.248 35.4612 71.472C35.6852 71.696 35.7972 72.0613 35.7972 72.568V73H34.8212V72.632C34.8212 72.3867 34.7785 72.216 34.6932 72.12C34.6132 72.024 34.4879 71.976 34.3172 71.976C34.2265 71.976 34.1519 71.9813 34.0932 71.992C33.9279 72.3227 33.6719 72.5867 33.3252 72.784C32.9839 72.9813 32.5519 73.08 32.0292 73.08ZM36.6099 73V69.304C36.6099 68.904 36.6925 68.5467 36.8579 68.232C37.0285 67.912 37.2792 67.6613 37.6099 67.48C37.9459 67.2987 38.3672 67.208 38.8739 67.208C39.5992 67.208 40.1512 67.4 40.5299 67.784C40.9085 68.168 41.0979 68.68 41.0979 69.32V70.192H42.2499V71.136H41.0979V73H39.9699V69.488C39.9699 69.0027 39.8739 68.6587 39.6819 68.456C39.4952 68.2533 39.2179 68.152 38.8499 68.152C38.4659 68.152 38.1832 68.2613 38.0019 68.48C37.8259 68.6933 37.7379 69.0293 37.7379 69.488V73H36.6099ZM45.3808 73.08C44.6608 73.08 44.1088 72.888 43.7248 72.504C43.3461 72.12 43.1568 71.608 43.1568 70.968V67.288H44.2848V70.8C44.2848 71.2853 44.3781 71.6293 44.5648 71.832C44.7568 72.0347 45.0394 72.136 45.4128 72.136C45.7968 72.136 46.0794 72.0293 46.2608 71.816C46.4421 71.5973 46.5328 71.2587 46.5328 70.8V67.288H47.6608V70.984C47.6608 71.0427 47.6581 71.0987 47.6528 71.152C47.7221 71.1413 47.7861 71.136 47.8448 71.136C48.2714 71.136 48.5941 71.248 48.8128 71.472C49.0368 71.696 49.1488 72.0613 49.1488 72.568V73H48.1728V72.632C48.1728 72.3867 48.1301 72.216 48.0448 72.12C47.9648 72.024 47.8394 71.976 47.6688 71.976C47.5781 71.976 47.5034 71.9813 47.4448 71.992C47.2794 72.3227 47.0234 72.5867 46.6768 72.784C46.3354 72.9813 45.9034 73.08 45.3808 73.08ZM53.7774 68.624C53.7774 69.008 53.6548 69.3173 53.4094 69.552C53.1641 69.7867 52.8334 69.9333 52.4174 69.992V70.016C52.9348 70.0693 53.3188 70.216 53.5694 70.456C53.8254 70.6907 53.9534 71 53.9534 71.384C53.9534 71.88 53.7668 72.288 53.3934 72.608C53.0254 72.9227 52.4868 73.08 51.7774 73.08C51.3881 73.08 51.0174 73.0533 50.6654 73C50.3188 72.9467 50.0361 72.8693 49.8174 72.768V71.76C49.9614 71.84 50.1374 71.9093 50.3454 71.968C50.5588 72.0213 50.7774 72.064 51.0014 72.096C51.2254 72.1227 51.4361 72.136 51.6334 72.136C52.0334 72.136 52.3241 72.0613 52.5054 71.912C52.6921 71.7627 52.7854 71.56 52.7854 71.304C52.7854 71.1227 52.7348 70.9733 52.6334 70.856C52.5321 70.7333 52.3508 70.6453 52.0894 70.592C51.8334 70.5333 51.4708 70.504 51.0014 70.504H49.6094V69.56H50.8014C51.2654 69.56 51.6308 69.5307 51.8974 69.472C52.1694 69.408 52.3614 69.32 52.4734 69.208C52.5908 69.0907 52.6494 68.9547 52.6494 68.8C52.6494 68.6027 52.5774 68.4453 52.4334 68.328C52.2894 68.2107 52.0441 68.152 51.6974 68.152C51.4094 68.152 51.1428 68.1947 50.8974 68.28C50.6574 68.36 50.4494 68.4747 50.2734 68.624L49.7774 67.832C50.0281 67.64 50.3348 67.488 50.6974 67.376C51.0654 67.264 51.4788 67.208 51.9374 67.208C52.5241 67.208 52.9774 67.3413 53.2974 67.608C53.6174 67.8693 53.7774 68.208 53.7774 68.624ZM55.0316 73V69.304C55.0316 68.904 55.1169 68.5467 55.2876 68.232C55.4582 67.912 55.7116 67.6613 56.0476 67.48C56.3889 67.2987 56.8102 67.208 57.3116 67.208C58.0316 67.208 58.5809 67.4 58.9596 67.784C59.3436 68.168 59.5356 68.68 59.5356 69.32V73H58.4076V69.48C58.4076 68.9947 58.3116 68.6533 58.1196 68.456C57.9329 68.2533 57.6529 68.152 57.2796 68.152C56.8956 68.152 56.6129 68.2587 56.4316 68.472C56.2502 68.6853 56.1596 69.0213 56.1596 69.48V73H55.0316ZM60.7196 73V67.288H61.8476V68.56H62.1836C62.4609 68.56 62.6849 68.5893 62.8556 68.648C63.0316 68.7067 63.1862 68.8187 63.3196 68.984C63.4529 69.144 63.5996 69.3813 63.7596 69.696C63.8929 69.9573 64.0022 70.1493 64.0876 70.272C64.1729 70.3947 64.2502 70.4747 64.3196 70.512C64.3942 70.544 64.4796 70.56 64.5756 70.56H64.7436V71.504H64.4556C64.1409 71.504 63.8742 71.4293 63.6556 71.28C63.4369 71.1253 63.2449 70.8853 63.0796 70.56C62.9302 70.256 62.8076 70.0293 62.7116 69.88C62.6209 69.7307 62.5302 69.632 62.4396 69.584C62.3542 69.5307 62.2422 69.504 62.1036 69.504H61.8476V73H60.7196ZM65.8286 73V69.712C65.8286 69.2267 65.9326 68.7973 66.1406 68.424C66.354 68.0453 66.6633 67.7493 67.0686 67.536C67.4793 67.3173 67.9806 67.208 68.5726 67.208C69.3673 67.208 69.994 67.3627 70.4526 67.672C70.9113 67.976 71.1913 68.4213 71.2926 69.008H72.3646V69.952H71.3406C71.3406 70.5973 71.178 71.0933 70.8526 71.44C70.5273 71.7867 70.106 71.96 69.5886 71.96C69.242 71.96 68.9406 71.896 68.6846 71.768C68.4286 71.64 68.2313 71.464 68.0926 71.24C67.954 71.0107 67.8846 70.7493 67.8846 70.456C67.8846 69.9973 68.0366 69.6427 68.3406 69.392C68.65 69.136 69.1033 69.008 69.7006 69.008H70.1566C70.0766 68.7093 69.9086 68.4933 69.6526 68.36C69.3966 68.2213 69.0366 68.152 68.5726 68.152C68.05 68.152 67.65 68.288 67.3726 68.56C67.0953 68.8267 66.9566 69.2107 66.9566 69.712V73H65.8286ZM70.2206 69.952H69.7086C69.5166 69.952 69.3593 69.9947 69.2366 70.08C69.114 70.16 69.0526 70.2827 69.0526 70.448C69.0526 70.608 69.09 70.744 69.1646 70.856C69.2446 70.9627 69.3886 71.016 69.5966 71.016C69.7833 71.016 69.9326 70.9413 70.0446 70.792C70.162 70.6427 70.2206 70.3627 70.2206 69.952ZM77.0353 68.624C77.0353 69.008 76.9126 69.3173 76.6673 69.552C76.4219 69.7867 76.0913 69.9333 75.6753 69.992V70.016C76.1926 70.0693 76.5766 70.216 76.8273 70.456C77.0833 70.6907 77.2113 71 77.2113 71.384C77.2113 71.88 77.0246 72.288 76.6513 72.608C76.2833 72.9227 75.7446 73.08 75.0353 73.08C74.6459 73.08 74.2753 73.0533 73.9233 73C73.5766 72.9467 73.2939 72.8693 73.0753 72.768V71.76C73.2193 71.84 73.3953 71.9093 73.6033 71.968C73.8166 72.0213 74.0353 72.064 74.2593 72.096C74.4833 72.1227 74.6939 72.136 74.8913 72.136C75.2913 72.136 75.5819 72.0613 75.7633 71.912C75.9499 71.7627 76.0433 71.56 76.0433 71.304C76.0433 71.1227 75.9926 70.9733 75.8913 70.856C75.7899 70.7333 75.6086 70.6453 75.3473 70.592C75.0913 70.5333 74.7286 70.504 74.2593 70.504H72.8673V69.56H74.0593C74.5233 69.56 74.8886 69.5307 75.1553 69.472C75.4273 69.408 75.6193 69.32 75.7313 69.208C75.8486 69.0907 75.9073 68.9547 75.9073 68.8C75.9073 68.6027 75.8353 68.4453 75.6913 68.328C75.5473 68.2107 75.3019 68.152 74.9553 68.152C74.6673 68.152 74.4006 68.1947 74.1553 68.28C73.9153 68.36 73.7073 68.4747 73.5312 68.624L73.0353 67.832C73.2859 67.64 73.5926 67.488 73.9553 67.376C74.3233 67.264 74.7366 67.208 75.1953 67.208C75.7819 67.208 76.2353 67.3413 76.5553 67.608C76.8753 67.8693 77.0353 68.208 77.0353 68.624ZM78.2894 73V69.304C78.2894 68.904 78.3747 68.5467 78.5454 68.232C78.716 67.912 78.9694 67.6613 79.3054 67.48C79.6467 67.2987 80.068 67.208 80.5694 67.208C81.2894 67.208 81.8387 67.4 82.2174 67.784C82.6014 68.168 82.7934 68.68 82.7934 69.32V73H81.6654V69.48C81.6654 68.9947 81.5694 68.6533 81.3774 68.456C81.1907 68.2533 80.9107 68.152 80.5374 68.152C80.1534 68.152 79.8707 68.2587 79.6894 68.472C79.508 68.6853 79.4174 69.0213 79.4174 69.48V73H78.2894ZM83.9774 73V67.288H85.1054V68.56H85.4414C85.7187 68.56 85.9427 68.5893 86.1134 68.648C86.2894 68.7067 86.444 68.8187 86.5774 68.984C86.7107 69.144 86.8574 69.3813 87.0174 69.696C87.1507 69.9573 87.26 70.1493 87.3454 70.272C87.4307 70.3947 87.508 70.4747 87.5774 70.512C87.652 70.544 87.7374 70.56 87.8334 70.56H88.0014V71.504H87.7134C87.3987 71.504 87.132 71.4293 86.9134 71.28C86.6947 71.1253 86.5027 70.8853 86.3374 70.56C86.188 70.256 86.0654 70.0293 85.9694 69.88C85.8787 69.7307 85.788 69.632 85.6974 69.584C85.612 69.5307 85.5 69.504 85.3614 69.504H85.1054V73H83.9774ZM91.0944 73.08C90.6411 73.08 90.2491 72.9947 89.9184 72.824C89.5878 72.648 89.3318 72.3973 89.1504 72.072C88.9691 71.7467 88.8784 71.3573 88.8784 70.904C88.8784 70.4667 88.9531 70.04 89.1024 69.624C89.2518 69.208 89.4518 68.824 89.7024 68.472C89.4198 68.4133 89.2064 68.28 89.0624 68.072C88.9184 67.8587 88.8464 67.552 88.8464 67.152V66.92H89.9744V67.16C89.9744 67.4587 90.0278 67.656 90.1344 67.752C90.2464 67.8427 90.4224 67.888 90.6624 67.888H91.1024L91.1664 68.008C91.0224 68.168 90.8811 68.3627 90.7424 68.592C90.6038 68.816 90.4784 69.0613 90.3664 69.328C90.2598 69.5893 90.1718 69.856 90.1024 70.128C90.0384 70.3947 90.0064 70.6533 90.0064 70.904C90.0064 71.2987 90.0998 71.6027 90.2864 71.816C90.4784 72.0293 90.7478 72.136 91.0944 72.136C91.4678 72.136 91.7371 72.0347 91.9024 71.832C92.0678 71.6293 92.1504 71.336 92.1504 70.952V69.64H93.2784V71.024C93.2784 71.6693 93.0811 72.1733 92.6864 72.536C92.2971 72.8987 91.7664 73.08 91.0944 73.08Z" fill="#13002E"/>
<g filter="url(#filter0_d_347_7887)">
<rect x="36" width="21.774" height="21.774" rx="3" fill="#0B847F"/>
<rect x="59.2266" width="21.774" height="21.774" rx="3" fill="#4874CC"/>
<rect x="36" y="23.2266" width="21.774" height="21.774" rx="3" fill="#CC5C90"/>
<rect x="59.2266" y="23.2266" width="21.774" height="21.774" rx="3" fill="#5801CC"/>
</g>
<defs>
<filter id="filter0_d_347_7887" x="31" y="0" width="55.0005" height="55.001" filterUnits="userSpaceOnUse" color-interpolation-filters="sRGB">
<feFlood flood-opacity="0" result="BackgroundImageFix"/>
<feColorMatrix in="SourceAlpha" type="matrix" values="0 0 0 0 0 0 0 0 0 0 0 0 0 0 0 0 0 0 127 0" result="hardAlpha"/>
<feOffset dy="5"/>
<feGaussianBlur stdDeviation="2.5"/>
<feComposite in2="hardAlpha" operator="out"/>
<feColorMatrix type="matrix" values="0 0 0 0 0 0 0 0 0 0 0 0 0 0 0 0 0 0 0.25 0"/>
<feBlend mode="normal" in2="BackgroundImageFix" result="effect1_dropShadow_347_7887"/>
<feBlend mode="normal" in="SourceGraphic" in2="effect1_dropShadow_347_7887" result="shape"/>
</filter>
</defs>
</svg>
